<svg id="Слой_1" data-name="Слой 1" xmlns="http://www.w3.org/2000/svg" viewBox="0 0 128 640"><defs><style>.cls-1{fill:#28a745;}.cls-2{fill:#fff;}.cls-3{fill:#0070e0;}.cls-4{fill:#ffa726;}.cls-5{fill:#9575cd;}</style></defs><title>status_sprite</title><circle class="cls-1" cx="64" cy="64" r="64"/><path class="cls-2" d="M54.3,97.2,24.8,67.7a1,1,0,0,1,0-1.4l8.5-8.5a1,1,0,0,1,1.4,0L55,78.1,93.2,39.9a1,1,0,0,1,1.4,0l8.5,8.5a1,1,0,0,1,0,1.4L55.7,97.2A1,1,0,0,1,54.3,97.2Z"/><circle class="cls-3" cx="64" cy="192" r="64"/><path class="cls-2" d="M100.3,165.6a1,1,0,0,0,0-1.4l-8.5-8.5a1,1,0,0,0-1.4,0l-9.9,9.9,9.9,9.9Z"/><path class="cls-2" d="M50.1,204.6a1,1,0,0,0,1.3,1.3l13-4.4,23.1-23.1-9.9-9.9L54.5,191.6Z"/><path class="cls-2" d="M100,192H88a.94.94,0,0,0-1,1v22H41V169H63a.94.94,0,0,0,1-1V156a.94.94,0,0,0-1-1H28a.94.94,0,0,0-1,1v72a.94.94,0,0,0,1,1h72a.94.94,0,0,0,1-1V193A.94.94,0,0,0,100,192Z"/><circle class="cls-4" cx="64" cy="448" r="64"/><rect class="cls-2" x="39" y="417" width="14" height="64" rx="2.17" ry="2.17"/><rect class="cls-2" x="74" y="417" width="14" height="64" rx="2.17" ry="2.17"/><circle class="cls-5" cx="64" cy="576" r="64"/><g id="Icons_with_numbers" data-name="Icons with numbers"><g id="Group"><path id="Oval_6" data-name="Oval 6" class="cls-2" d="M62.88,599.24a20.78,20.78,0,0,1,.65-41.53.46.46,0,0,1,.47.46v12.49a.45.45,0,0,0,.72.36l26.51-19.88a.45.45,0,0,0,0-.72L64.72,530.54a.45.45,0,0,0-.72.36v12.51a.44.44,0,0,1-.44.44A34.6,34.6,0,1,0,96.68,567a.46.46,0,0,0-.71-.2L84.81,575.7a.44.44,0,0,0-.16.4,21,21,0,0,1,.14,2.39A20.78,20.78,0,0,1,62.88,599.24Z"/></g></g><circle class="cls-3" cx="64" cy="320" r="64"/><path class="cls-2" d="M100,293H28a4,4,0,0,0-4,4v42a4,4,0,0,0,4,4H48v15a1,1,0,0,0,1.6.8L71.9,343H100a4,4,0,0,0,4-4V297A4,4,0,0,0,100,293ZM48,323a5,5,0,1,1,5-5A5,5,0,0,1,48,323Zm16,0a5,5,0,1,1,5-5A5,5,0,0,1,64,323Zm16,0a5,5,0,1,1,5-5A5,5,0,0,1,80,323Z"/></svg>