<svg width="81" height="20" viewBox="0 0 81 20" version="1.1" xmlns="http://www.w3.org/2000/svg" xmlns:xlink="http://www.w3.org/1999/xlink">
<title>Fill 1</title>
<desc>Created using Figma</desc>
<g id="Canvas" transform="translate(-451 -33)">
<g id="Fill 1">
<use xlink:href="#path0_fill" transform="translate(451 33)" fill="#0070E0"/>
</g>
</g>
<defs>
<path id="path0_fill" fill-rule="evenodd" d="M 46.3451 16.0174C 46.3451 14.234 44.8761 12.7821 43.0704 12.7821C 41.2642 12.7821 39.7946 14.234 39.7946 16.0174C 39.7946 17.8008 41.2642 19.2527 43.0704 19.2527C 44.8761 19.2527 46.3451 17.8008 46.3451 16.0174L 46.3451 16.0174ZM 35.2928 0.419491L 31.9718 1.59559C 31.4895 1.78572 31.2638 2.07092 31.2638 2.48962L 31.2638 9.70469C 31.2638 13.1036 29.819 14.9753 27.196 14.9753C 25.3498 14.9753 24.2479 13.6938 24.2479 11.5473L 24.2479 1.11923C 24.2479 0.70001 23.8129 0.343647 23.4074 0.488582L 20.2189 1.59559C 19.7056 1.82728 19.511 2.07092 19.511 2.48962L 19.511 11.9899C 19.511 16.4668 22.2413 19.2486 26.6363 19.2486C 28.7728 19.2486 30.6306 18.4372 31.9855 16.9244C 32.1911 16.739 32.2695 16.7172 32.2658 16.7109C 32.2732 16.7161 32.3069 16.7442 32.361 16.8444L 33.0422 18.4803C 33.2289 18.8849 33.3898 18.8798 33.8054 18.8798L 35.2928 18.8798C 35.7162 18.8798 36.0002 18.5992 36.0002 18.1805L 36.0002 1.11923C 36.0002 0.70001 35.6699 0.308322 35.2928 0.419491L 35.2928 0.419491ZM 80.06 0.419491L 76.7396 1.59559C 76.2573 1.78572 76.0311 2.07092 76.0311 2.48962L 76.0311 9.70469C 76.0311 13.1036 74.5862 14.9753 71.9637 14.9753C 70.117 14.9753 69.0151 13.6938 69.0151 11.5473L 69.0151 1.11923C 69.0151 0.70001 68.5801 0.343647 68.1746 0.488582L 64.9862 1.59559C 64.4728 1.82728 64.2782 2.07092 64.2782 2.48962L 64.2782 11.9899C 64.2782 16.4668 67.0085 19.2486 71.4036 19.2486C 73.5401 19.2486 75.3978 18.4372 76.7527 16.9244C 76.9584 16.739 77.0373 16.7172 77.0331 16.7109C 77.0404 16.7161 77.0741 16.7442 77.1283 16.8444L 77.8099 18.4803C 77.9961 18.8849 78.1576 18.8798 78.5726 18.8798L 80.06 18.8798C 80.4835 18.8798 80.768 18.5992 80.768 18.1805L 80.768 1.11923C 80.768 0.70001 80.4372 0.308322 80.06 0.419491L 80.06 0.419491ZM 7.20001 15.4865C 5.00827 15.4865 4.36816 14.3468 4.36816 13.0585C 4.36816 11.566 5.99816 11.2522 7.08798 11.2522L 11.4541 11.2522C 11.4404 13.7603 9.96979 15.4865 7.20001 15.4865L 7.20001 15.4865ZM 13.821 18.8797L 15.4452 18.8797C 15.8692 18.8797 16.1537 18.5992 16.1537 18.1805L 16.1537 7.38313C 16.1537 2.79196 13.0016 0.051178 7.72235 0.051178C 6.21544 0.051178 5.22134 0.145204 3.89747 0.530139L 2.91337 0.844425C 2.50574 0.997152 2.43684 1.35663 2.59095 1.73014L 3.57505 3.98676C 3.74178 4.36442 4.0884 4.51975 4.7769 4.36442C 5.42121 4.21897 6.32957 4.11507 7.41255 4.11507C 9.98246 4.11507 11.4231 5.40287 11.4536 7.45793L 7.08803 7.45793C 2.64933 7.45793 0 9.6891 0 13.4268C 0 17.0953 2.52415 19.2855 6.75245 19.2855C 9.03571 19.2855 10.8288 18.5956 12.0653 17.2538C 12.3057 17.0356 12.3625 16.9774 12.3578 16.9701C 12.3667 16.9769 12.4461 17.0507 12.5082 17.1852L 13.0536 18.3473C 13.2819 18.7192 13.436 18.8797 13.821 18.8797L 13.821 18.8797ZM 51.3724 18.8797L 54.6929 18.8797C 55.1168 18.8797 55.4013 18.5992 55.4013 18.1805L 55.4013 13.7956C 55.4013 5.99403 56.1382 5.46624 60.083 5.28702C 60.507 5.28702 60.7231 5.16546 60.9093 4.69169L 62.3526 0.747797C 62.5514 0.257407 62.3221 -0.00960594 61.8903 0.000264186C 58.8775 0.0693551 56.4464 1.00182 54.8449 3.05897C 54.767 3.14468 54.6676 3.25637 54.6676 3.25637C 54.6676 3.25637 54.6287 3.18 54.6071 3.06676L 54.0054 0.952472C 53.8881 0.603901 53.46 0.332212 53.0881 0.467797L 51.3403 1.39195C 50.7049 1.67455 50.6318 2.30987 50.6318 2.72858L 50.6639 18.1805C 50.6639 18.5992 50.9484 18.8797 51.3724 18.8797L 51.3724 18.8797Z"/>
</defs>
</svg>
