<?xml version="1.0" encoding="UTF-8"?>
<svg width="102px" height="24px" viewBox="0 0 102 24" version="1.1" xmlns="http://www.w3.org/2000/svg" xmlns:xlink="http://www.w3.org/1999/xlink">
    <!-- Generator: Sketch 43.1 (39012) - http://www.bohemiancoding.com/sketch -->
    <title>Artboard</title>
    <desc>Created with Sketch.</desc>
    <defs></defs>
    <g id="Page-1" stroke="none" stroke-width="1" fill="none" fill-rule="evenodd">
        <g id="Artboard">
            <g id="1492080963_rubber-duck" fill-rule="nonzero">
                <g id="Body_8_" fill="#FFCC66">
                    <path d="M18.4615385,9.60036923 C18.4615385,9.60036923 16.9846154,8.86190769 16.9846154,8.12344615 C16.9846154,6.64652308 18.4615385,7.38498462 19.9384615,5.1696 C19.9384615,5.1696 19.2,0 14.0307692,0 C9.6,0 8.12307692,3.69267692 8.12307692,5.90806154 C8.12307692,9.60036923 10.3384615,9.60036923 10.3384615,11.8157538 C10.3384615,12.5542154 9.6,13.2926769 7.38461538,13.2926769 C3.69230769,13.2926769 2.21538462,9.60036923 2.21538462,9.60036923 C2.21538462,9.60036923 0,11.0772923 0,14.7696 C0,19.2003692 2.95384615,23.6311385 9.6,23.6311385 L13.2923077,23.6311385 C15.5076923,23.6311385 19.9384615,20.6772923 19.9384615,16.9849846 C19.9384615,13.2926769 17.7230769,13.2926769 17.7230769,11.8157538 C17.7230769,10.3388308 18.4615385,9.60036923 18.4615385,9.60036923 Z" id="Shape"></path>
                </g>
                <g id="Beak" transform="translate(16.984615, 5.169231)" fill="#FF8833">
                    <path d="M5.16923077,0.738830769 C3.69230769,0.738830769 2.95384615,0.000369230769 2.95384615,0.000369230769 C1.47692308,2.21575385 0,1.47729231 0,2.95421538 C0,3.69267692 1.47692308,4.43113846 1.47692308,4.43113846 C2.95384615,4.43113846 6.64615385,2.21575385 6.64615385,1.47729231 C6.64615385,0.738830769 5.90769231,0.738830769 5.16923077,0.738830769 Z" id="Shape"></path>
                </g>
                <g id="Eye" transform="translate(16.984615, 3.692308)" fill="#666666">
                    <ellipse id="Oval" cx="0.738461538" cy="0.738830769" rx="1" ry="1"></ellipse>
                </g>
            </g>
            <path d="M73,17.65625 C73,16.3643274 71.8786735,15.3125 70.5004015,15.3125 C69.121728,15.3125 68,16.3643274 68,17.65625 C68,18.9481726 69.121728,20 70.5004015,20 C71.8786735,20 73,18.9481726 73,17.65625 M64.4422648,5.01522481 L61.8240191,5.95120481 C61.443764,6.10251607 61.2658692,6.32948295 61.2658692,6.66269844 L61.2658692,12.4046711 C61.2658692,15.1096699 60.1267624,16.5992176 58.0587879,16.5992176 C56.6032855,16.5992176 55.7345455,15.5793136 55.7345455,13.8710674 L55.7345455,5.57209984 C55.7345455,5.23847093 55.3916108,4.95486568 55.0718979,5.07020951 L52.5581499,5.95120481 C52.153429,6.13558957 52,6.32948295 52,6.66269844 L52,14.2233001 C52,17.7861427 54.1525678,20 57.6175758,20 C59.3019777,20 60.7666029,19.3542399 61.8348006,18.1503646 C61.9969378,18.0027741 62.0587241,17.9854105 62.0558214,17.9804495 C62.0616268,17.9845837 62.0881659,18.0069083 62.1308772,18.0866981 L62.6678788,19.3885537 C62.8150877,19.7106069 62.9419777,19.7064727 63.2695694,19.7064727 L64.4422648,19.7064727 C64.7760766,19.7064727 65,19.4832266 65,19.1500111 L65,5.57209984 C65,5.23847093 64.7395853,4.92675321 64.4422648,5.01522481 M100.441868,5.01522481 L97.8241204,5.95120481 C97.4438774,6.10251607 97.2655737,6.32948295 97.2655737,6.66269844 L97.2655737,12.4046711 C97.2655737,15.1096699 96.1265031,16.5992176 94.0590093,16.5992176 C92.6031387,16.5992176 91.7344263,15.5793136 91.7344263,13.8710674 L91.7344263,5.57209984 C91.7344263,5.23847093 91.3915027,4.95486568 91.0717999,5.07020951 L88.5581321,5.95120481 C88.1534241,6.13558957 88,6.32948295 88,6.66269844 L88,14.2233001 C88,17.7861427 90.1524991,20 93.6173966,20 C95.3017448,20 96.7663232,19.3542399 97.8344869,18.1503646 C97.9966189,18.0027741 98.0588179,17.9854105 98.0555006,17.9804495 C98.0613059,17.9845837 98.0878441,18.0069083 98.130554,18.0866981 L98.6679532,19.3885537 C98.8147428,19.7106069 98.9420433,19.7064727 99.2692099,19.7064727 L100.441868,19.7064727 C100.775669,19.7064727 101,19.4832266 101,19.1500111 L101,5.57209984 C101,5.23847093 100.739179,4.92675321 100.441868,5.01522481 M42.3978622,17.1875 C40.5420131,17.1875 40,16.1781146 40,15.0371503 C40,13.71538 41.380196,13.4375 42.3029988,13.4375 L46,13.4375 C45.9884204,15.6586999 44.743171,17.1875 42.3978622,17.1875 M47.1227208,19.6836007 L48.429832,19.6836007 C48.7710016,19.6836007 49,19.4648355 49,19.1383082 L49,10.7178739 C49,7.13741695 46.4632391,5 42.2147044,5 C41.0019862,5 40.2019732,5.07332685 39.136559,5.37352131 L38.3445884,5.61861935 C38.0165408,5.73772484 37.9610901,6.01806838 38.0851133,6.30935019 L38.8770839,8.06919462 C39.011266,8.36371739 39.2902123,8.48484848 39.8442954,8.36371739 C40.3628223,8.25028358 41.0938395,8.16925944 41.9653881,8.16925944 C44.0335699,8.16925944 45.1929539,9.17355372 45.2175046,10.7762113 L41.7042198,10.7762113 C38.1320982,10.7762113 36,12.5162048 36,15.4310485 C36,18.292011 38.0313558,20 41.4341625,20 C43.2716528,20 44.7146392,19.4619997 45.7097877,18.4155728 C45.90323,18.2454221 45.948945,18.2000486 45.9451355,18.1943769 C45.9523313,18.1996435 46.0162477,18.2571706 46.0661956,18.3620969 L46.5051446,19.268352 C46.6888513,19.5584184 46.8128744,19.6836007 47.1227208,19.6836007 M77.5651697,20 L80.0992013,20 C80.4227289,20 80.6398857,19.7771266 80.6398857,19.4444675 L80.6398857,15.9606266 C80.6398857,9.76227077 81.2022456,9.34293866 84.2127378,9.20054734 C84.5362653,9.20054734 84.7012403,9.10396889 84.8433355,8.72756054 L85.9447742,5.59412614 C86.0965031,5.20451048 85.9214931,4.99236806 85.5919446,5.0002099 C83.2927314,5.05510278 81.4374654,5.79595035 80.2152056,7.43035502 C80.1557986,7.49845521 80.0799342,7.58719183 80.0799342,7.58719183 C80.0799342,7.58719183 80.0502306,7.52652075 80.0337733,7.43654594 L79.5745729,5.75674115 C79.4850609,5.47980036 79.1583222,5.26394338 78.8745331,5.3716655 L77.5406844,6.10590942 C77.0557945,6.33043369 77,6.83520059 77,7.16785972 L77.0244853,19.4444675 C77.0244853,19.7771266 77.2416422,20 77.5651697,20" id="Fill-1" fill="#FFFFFF" opacity="0.85"></path>
        </g>
    </g>
</svg>