<?xml version="1.0" encoding="UTF-8"?>
<svg width="128px" height="128px" viewBox="0 0 128 128" version="1.1" xmlns="http://www.w3.org/2000/svg" xmlns:xlink="http://www.w3.org/1999/xlink">
    <!-- Generator: Sketch 43.1 (39012) - http://www.bohemiancoding.com/sketch -->
    <title>icon_pin</title>
    <desc>Created with Sketch.</desc>
    <defs></defs>
    <g id="Page-1" stroke="none" stroke-width="1" fill="none" fill-rule="evenodd">
        <g id="icon_pin" transform="translate(-1.000000, 0.000000)" fill-rule="nonzero">
            <path d="M47.108,95.078 C45.545,93.515 43.014,93.515 41.452,95.078 L41.335,94.961 L19.421,109.578 L34.038,87.664 L33.921,87.547 C35.484,85.984 35.476,83.445 33.921,81.891 C32.358,80.328 29.827,80.328 28.265,81.891 L1.671,121.781 C0.616,123.367 0.819,125.476 2.171,126.828 C2.944,127.602 3.968,128 4.999,128 C5.765,128 6.538,127.781 7.218,127.328 L47.109,100.734 C48.671,99.172 48.663,96.633 47.108,95.078 Z" id="Shape" fill="#B0BEC5"></path>
            <path d="M72.999,8 L120.999,56 L104.999,56 L72.999,88 L72.999,104 L24.999,56 L40.999,56 L72.999,24 L72.999,8 L72.999,8 Z M72.999,0 C71.968,0 70.929,0.195 69.936,0.609 C66.952,1.844 64.999,4.766 64.999,8 L64.999,20.688 L37.687,48 L24.999,48 C21.765,48 18.843,49.953 17.608,52.938 C16.366,55.93 17.053,59.368 19.342,61.657 L67.342,109.657 C68.873,111.188 70.92,112.001 72.998,112.001 C74.029,112.001 75.068,111.806 76.061,111.392 C79.045,110.158 80.999,107.236 80.999,104.001 L80.999,91.313 L108.312,64 L121,64 C124.234,64 127.156,62.047 128.391,59.062 C129.633,56.07 128.946,52.632 126.657,50.343 L78.657,2.343 C77.124,0.813 75.077,0 72.999,0 L72.999,0 Z" id="Shape" fill="#F44336"></path>
        </g>
    </g>
</svg>